<svg xmlns="http://www.w3.org/2000/svg" version="1.1" xmlns:xlink="http://www.w3.org/1999/xlink" xmlns:svgjs="http://svgjs.dev/svgjs" width="1000" height="1000" viewBox="0 0 1000 1000"><rect width="1000" height="1000" fill="#ffffff"></rect><g transform="matrix(0.7,0,0,0.7,149.57575758266103,436.6307899601351)"><svg viewBox="0 0 396 72" data-background-color="#ffffff" preserveAspectRatio="xMidYMid meet" height="181" width="1000" xmlns="http://www.w3.org/2000/svg" xmlns:xlink="http://www.w3.org/1999/xlink"><g id="tight-bounds" transform="matrix(1,0,0,1,0.24000000390537934,0.010918767390904804)"><svg viewBox="0 0 395.52 71.97816196542311" height="71.97816196542311" width="395.52"><g><svg viewBox="0 0 395.52 71.97816196542311" height="71.97816196542311" width="395.52"><g><svg viewBox="0 0 395.52 71.97816196542311" height="71.97816196542311" width="395.52"><g id="textblocktransform"><svg viewBox="0 0 395.52 71.97816196542311" height="71.97816196542311" width="395.52" id="textblock"><g><svg viewBox="0 0 395.52 71.97816196542311" height="71.97816196542311" width="395.52"><g transform="matrix(1,0,0,1,0,0)"><svg width="395.52" viewBox="1.3700000047683716 -42.189998626708984 241.4600067138672 43.94999694824219" height="71.97816196542311" data-palette-color="#0080ff"><path d="M16.5-27.05Q13.67-24.22 13.67-20.21 13.67-16.21 16.5-13.38 19.34-10.55 23.34-10.55 27.34-10.55 30.18-13.38 33.01-16.21 33.01-20.21 33.01-24.22 30.18-27.05 27.34-29.88 23.34-29.88 19.34-29.88 16.5-27.05ZM12.82-15.78Q11.91-17.9 11.91-20.21 11.91-22.53 12.82-24.65 13.72-26.76 15.26-28.3 16.8-29.83 18.91-30.74 21.02-31.64 23.34-31.64 25.66-31.64 27.77-30.74 29.88-29.83 31.42-28.3 32.96-26.76 33.86-24.65 34.77-22.53 34.77-20.21 34.77-17.9 33.86-15.78 32.96-13.67 31.42-12.13 29.88-10.6 27.77-9.69 25.66-8.79 23.34-8.79 21.02-8.79 18.91-9.69 16.8-10.6 15.26-12.13 13.72-13.67 12.82-15.78ZM11.93-26.83Q10.16-23.8 10.16-20.21 10.16-16.63 11.93-13.6 13.7-10.57 16.72-8.8 19.75-7.03 23.34-7.03 26.93-7.03 29.96-8.8 32.98-10.57 34.75-13.6 36.52-16.63 36.52-20.21 36.52-23.8 34.75-26.83 32.98-29.86 29.96-31.63 26.93-33.4 23.34-33.4 19.75-33.4 16.72-31.63 13.7-29.86 11.93-26.83ZM10.4-12.72Q8.4-16.16 8.4-20.21 8.4-24.27 10.4-27.71 12.4-31.15 15.84-33.15 19.29-35.16 23.34-35.16 27.39-35.16 30.83-33.15 34.28-31.15 36.28-27.71 38.28-24.27 38.28-20.21 38.28-16.16 36.28-12.72 34.28-9.28 30.83-7.28 27.39-5.27 23.34-5.27 19.29-5.27 15.84-7.28 12.4-9.28 10.4-12.72ZM7.96-26.71Q6.64-23.61 6.64-20.21 6.64-16.82 7.96-13.72 9.28-10.62 11.51-8.39 13.75-6.15 16.85-4.83 19.95-3.52 23.34-3.52 26.73-3.52 29.83-4.83 32.93-6.15 35.17-8.39 37.4-10.62 38.72-13.72 40.04-16.82 40.04-20.21 40.04-23.61 38.72-26.71 37.4-29.81 35.17-32.04 32.93-34.28 29.83-35.6 26.73-36.91 23.34-36.91 19.95-36.91 16.85-35.6 13.75-34.28 11.51-32.04 9.28-29.81 7.96-26.71ZM7.36-10.96Q4.88-15.21 4.88-20.21 4.88-25.22 7.36-29.47 9.84-33.72 14.09-36.19 18.33-38.67 23.34-38.67 28.34-38.67 32.59-36.19 36.84-33.72 39.32-29.47 41.8-25.22 41.8-20.21 41.8-15.21 39.32-10.96 36.84-6.71 32.59-4.24 28.34-1.76 23.34-1.76 18.33-1.76 14.09-4.24 9.84-6.71 7.36-10.96ZM4.72-28.06Q3.13-24.32 3.13-20.21 3.13-16.11 4.72-12.37 6.32-8.62 9.03-5.91 11.74-3.2 15.49-1.6 19.24 0 23.34 0 27.44 0 31.19-1.6 34.94-3.2 37.65-5.91 40.36-8.62 41.96-12.37 43.55-16.11 43.55-20.21 43.55-24.32 41.96-28.06 40.36-31.81 37.65-34.52 34.94-37.23 31.19-38.83 27.44-40.43 23.34-40.43 19.24-40.43 15.49-38.83 11.74-37.23 9.03-34.52 6.32-31.81 4.72-28.06ZM3.11-11.68Q1.37-15.75 1.37-20.21 1.37-24.68 3.11-28.75 4.86-32.81 7.8-35.75 10.74-38.7 14.81-40.44 18.87-42.19 23.34-42.19 27.81-42.19 31.87-40.44 35.94-38.7 38.88-35.75 41.82-32.81 43.57-28.75 45.31-24.68 45.31-20.21 45.31-15.75 43.57-11.68 41.82-7.62 38.88-4.68 35.94-1.73 31.87 0.01 27.81 1.76 23.34 1.76 18.87 1.76 14.81 0.01 10.74-1.73 7.8-4.68 4.86-7.62 3.11-11.68ZM79.47-26.61L79.47-26.61 78.02-25.66Q76.71-27.61 74.59-28.75 72.48-29.88 70.02-29.88L70.02-29.88Q66.01-29.88 63.18-27.05 60.35-24.22 60.35-20.21 60.35-16.21 63.18-13.38 66.01-10.55 70.02-10.55L70.02-10.55Q72.48-10.55 74.59-11.69 76.71-12.84 78.02-14.79L78.02-14.79 79.44-13.77Q77.88-11.47 75.39-10.13 72.9-8.79 70.02-8.79L70.02-8.79Q67.7-8.79 65.59-9.69 63.47-10.6 61.94-12.13 60.4-13.67 59.49-15.78 58.59-17.9 58.59-20.21 58.59-22.53 59.49-24.65 60.4-26.76 61.94-28.3 63.47-29.83 65.59-30.74 67.7-31.64 70.02-31.64L70.02-31.64Q72.92-31.64 75.41-30.29 77.9-28.93 79.47-26.61ZM82.37-28.61L82.37-28.61 80.91-27.66Q79.1-30.3 76.23-31.85 73.36-33.4 70.02-33.4L70.02-33.4Q66.43-33.4 63.4-31.63 60.37-29.86 58.6-26.83 56.83-23.8 56.83-20.21 56.83-16.63 58.6-13.6 60.37-10.57 63.4-8.8 66.43-7.03 70.02-7.03L70.02-7.03Q73.36-7.03 76.24-8.59 79.12-10.16 80.93-12.82L80.93-12.82 82.37-11.82Q80.32-8.79 77.06-7.03 73.8-5.27 70.02-5.27L70.02-5.27Q65.96-5.27 62.52-7.28 59.08-9.28 57.08-12.72 55.08-16.16 55.08-20.21 55.08-24.27 57.08-27.71 59.08-31.15 62.52-33.15 65.96-35.16 70.02-35.16L70.02-35.16Q73.8-35.16 77.06-33.4 80.32-31.64 82.37-28.61ZM85.3-30.57L85.3-30.57 83.84-29.61Q81.54-32.98 77.89-34.95 74.24-36.91 70.02-36.91L70.02-36.91Q66.62-36.91 63.52-35.6 60.42-34.28 58.19-32.04 55.95-29.81 54.64-26.71 53.32-23.61 53.32-20.21 53.32-16.82 54.64-13.72 55.95-10.62 58.19-8.39 60.42-6.15 63.52-4.83 66.62-3.52 70.02-3.52L70.02-3.52Q74.27-3.52 77.9-5.49 81.54-7.47 83.84-10.84L83.84-10.84 85.25-9.79Q82.71-6.08 78.7-3.92 74.68-1.76 70.02-1.76L70.02-1.76Q65.01-1.76 60.76-4.24 56.52-6.71 54.04-10.96 51.56-15.21 51.56-20.21 51.56-25.22 54.04-29.47 56.52-33.72 60.76-36.19 65.01-38.67 70.02-38.67L70.02-38.67Q74.7-38.67 78.73-36.49 82.76-34.3 85.3-30.57ZM88.18-32.57L88.18-32.57 86.72-31.62Q83.93-35.69 79.53-38.06 75.12-40.43 70.02-40.43L70.02-40.43Q65.92-40.43 62.17-38.83 58.42-37.23 55.71-34.52 53-31.81 51.4-28.06 49.8-24.32 49.8-20.21 49.8-16.11 51.4-12.37 53-8.62 55.71-5.91 58.42-3.2 62.17-1.6 65.92 0 70.02 0L70.02 0Q75.12 0 79.54-2.39 83.96-4.79 86.74-8.86L86.74-8.86 88.16-7.79Q85.13-3.39 80.34-0.82 75.56 1.76 70.02 1.76L70.02 1.76Q65.55 1.76 61.48 0.01 57.42-1.73 54.48-4.68 51.54-7.62 49.79-11.68 48.04-15.75 48.04-20.21 48.04-24.68 49.79-28.75 51.54-32.81 54.48-35.75 57.42-38.7 61.48-40.44 65.55-42.19 70.02-42.19L70.02-42.19Q75.58-42.19 80.37-39.6 85.15-37.01 88.18-32.57ZM117.13-38.67L90.77-38.67 90.77-40.43 117.13-40.43 117.13-38.67ZM117.13-35.16L90.77-35.16 90.77-36.91 117.13-36.91 117.13-35.16ZM97.8-31.64L90.77-31.64 90.77-33.4 117.13-33.4 117.13-31.64 110.1-31.64 110.1 0 108.34 0 108.34-31.64 106.59-31.64 106.59 0 104.83 0 104.83-31.64 103.07-31.64 103.07 0 101.31 0 101.31-31.64 99.56-31.64 99.56 0 97.8 0 97.8-31.64ZM145.99-11.87L138.57-11.87 139.27-13.62 145.28-13.62 145.99-11.87ZM147.4-8.35L137.2-8.35 137.88-10.11 146.65-10.11 147.4-8.35ZM148.77-4.83L135.83-4.83 136.52-6.59 148.04-6.59 148.77-4.83ZM136.59-38.06L121.55 0 119.65 0 135.64-40.43 137.54-40.43 153.51 0 151.63 0 136.59-38.06ZM123.43 0L136.81-33.89 137.81-31.64 125.31 0 123.43 0ZM127.21 0L138.76-29.25 139.69-26.83 129.12 0 127.21 0ZM131 0L140.62-24.41 141.55-21.95 132.88 0 131 0ZM148.87-40.43L164.86 0 162.96 0 146.99-40.43 148.87-40.43ZM143.21-40.43L145.09-40.43 161.08 0 159.2 0 143.21-40.43ZM139.42-40.43L141.3-40.43 157.29 0 155.39 0 139.42-40.43ZM196.65-40.43L196.65-19.46 194.89-22.36 194.89-40.43 196.65-40.43ZM200.16-40.43L200.16-13.7 198.4-16.65 198.4-40.43 200.16-40.43ZM203.68-40.43L203.68-7.86 201.92-10.84 201.92-40.43 203.68-40.43ZM178.48 0L178.48-20.97 180.24-18.07 180.24 0 178.48 0ZM174.97 0L174.97-26.73 176.72-23.78 176.72 0 174.97 0ZM171.45 0L171.45-32.57 173.21-29.59 173.21 0 171.45 0ZM196.91 0L172.06-40.43 174.11-40.43 198.96 0 196.91 0ZM201.02 0L176.21-40.43 178.29-40.43 203.12 0 201.02 0ZM205.12 0L180.34-40.43 182.39-40.43 205.43-2.86 205.43-40.43 207.19-40.43 207.19 0Q207.19 0 205.12 0L205.12 0ZM192.79 0L169.69-37.57 169.69 0 167.93 0 167.93-40.43Q167.93-40.43 170.03-40.43L170.03-40.43 194.81 0 192.79 0ZM220.62-40.43L220.62 0 218.86 0 218.86-40.43 220.62-40.43ZM217.1-40.43L217.1 0 215.34 0 215.34-40.43 217.1-40.43ZM213.59-40.43L213.59 0 211.83 0 211.83-40.43 213.59-40.43ZM224.13-15.82L224.13-8.79 242.83-8.79 242.83-7.03 224.13-7.03 224.13-5.27 242.83-5.27 242.83-3.52 224.13-3.52 224.13-1.76 242.83-1.76 242.83 0 222.38 0 222.38-40.43 242.83-40.43 242.83-38.67 224.13-38.67 224.13-36.91 242.83-36.91 242.83-35.16 224.13-35.16 224.13-33.4 242.83-33.4 242.83-31.64 224.13-31.64 224.13-24.61 233.73-24.61 233.73-22.85 224.13-22.85 224.13-21.09 233.73-21.09 233.73-19.34 224.13-19.34 224.13-17.58 233.73-17.58 233.73-15.82 224.13-15.82Z" opacity="1" transform="matrix(1,0,0,1,0,0)" fill="#0080ff" class="wordmark-text-0" data-fill-palette-color="primary" id="text-0"></path></svg></g></svg></g></svg></g></svg></g><g></g></svg></g><defs></defs></svg><rect width="395.52" height="71.97816196542311" fill="none" stroke="none" visibility="hidden"></rect></g></svg></g></svg>